<?xml version="1.0" encoding="UTF-8"?><svg id="Layer_1" xmlns="http://www.w3.org/2000/svg" viewBox="0 0 50 40"><defs><style>.cls-1{fill:#5ebdb2;}</style></defs><circle class="cls-1" cx="22.44" cy="20" r="2.64"/><circle class="cls-1" cx="22.44" cy="10.51" r="2.64"/><circle class="cls-1" cx="22.44" cy="2.08" r="1.58"/><circle class="cls-1" cx="22.44" cy="29.49" r="2.64"/><circle class="cls-1" cx="22.44" cy="37.92" r="1.58"/><circle class="cls-1" cx="38.77" cy="10.51" r="1.58"/><circle class="cls-1" cx="6.1" cy="28.43" r="1.58"/><circle class="cls-1" cx="6.1" cy="10.51" r="1.58"/><circle class="cls-1" cx="6.1" cy="19.47" r="1.58"/><circle class="cls-1" cx="30.34" cy="14.73" r="2.64"/><circle class="cls-1" cx="30.34" cy="6.3" r="1.58"/><circle class="cls-1" cx="14.53" cy="14.73" r="2.64"/><circle class="cls-1" cx="14.53" cy="6.3" r="1.58"/><circle class="cls-1" cx="14.53" cy="25.27" r="2.64"/><circle class="cls-1" cx="14.53" cy="33.7" r="1.58"/><path class="cls-1" d="M41.1,23.88c-.16,0-.3.04-.41.12-.11.08-.2.18-.26.29-.06.11-.1.26-.14.43-.03.17-.05.32-.06.44,0,.12,0,.26,0,.41v4.86c0,.14,0,.27.02.4.01.13.03.28.07.44.04.16.08.31.14.43.06.12.15.22.26.3.11.08.24.12.39.12.18,0,.34-.06.47-.17.13-.12.22-.27.28-.46.06-.19.09-.37.11-.54.02-.17.03-.34.03-.52v-4.86c0-1.13-.29-1.7-.89-1.7Z"/><path class="cls-1" d="M37.56,17.5c-5.8,0-10.5,4.7-10.5,10.5s4.7,10.5,10.5,10.5,10.5-4.7,10.5-10.5-4.7-10.5-10.5-10.5ZM34.29,33.89h-2.25v-8.76h-1.19v-1.74c.12-.07.29-.16.49-.26.21-.1.36-.18.48-.24.11-.06.24-.16.38-.3.14-.14.26-.31.35-.5h1.74v11.8ZM37.42,33.89h-2.13v-2.08h2.13v2.08ZM44.27,30.43c0,.5-.06.97-.2,1.41-.13.44-.32.83-.58,1.17-.26.34-.59.61-1,.81-.41.2-.88.3-1.4.3s-1-.1-1.41-.29c-.41-.2-.75-.47-1-.81-.25-.34-.44-.73-.57-1.17-.13-.44-.19-.91-.19-1.42v-4.86c0-.52.06-1.01.19-1.45.13-.44.31-.83.56-1.17.25-.34.58-.61.99-.8.41-.19.89-.29,1.44-.29s1.02.1,1.43.29c.41.19.74.46.99.8.25.34.44.73.56,1.17.12.44.19.92.19,1.44v4.86Z"/></svg>