<?xml version="1.0" encoding="UTF-8"?><svg id="Layer_1" xmlns="http://www.w3.org/2000/svg" viewBox="0 0 50 40"><defs><style>.cls-1{fill:#5ebdb2;}</style></defs><path class="cls-1" d="M25,1c-1,0-1.81.81-1.81,1.81v34.37c0,1,.81,1.81,1.81,1.81s1.81-.81,1.81-1.81V2.81c0-1-.81-1.81-1.81-1.81Z"/><path class="cls-1" d="M33.19,7.47c-1,0-1.81.81-1.81,1.81v21.43c0,1,.81,1.81,1.81,1.81s1.81-.81,1.81-1.81V9.28c0-1-.81-1.81-1.81-1.81Z"/><path class="cls-1" d="M41.37,14.1c-1,0-1.81.81-1.81,1.81v8.18c0,1,.81,1.81,1.81,1.81s1.81-.81,1.81-1.81v-8.18c0-1-.81-1.81-1.81-1.81Z"/><path class="cls-1" d="M16.81,7.44c-1,0-1.81.81-1.81,1.81v21.5c0,1,.81,1.81,1.81,1.81s1.81-.81,1.81-1.81V9.25c0-1-.81-1.81-1.81-1.81Z"/><path class="cls-1" d="M8.63,14.13c-1,0-1.81.81-1.81,1.81v8.1c0,1,.81,1.81,1.81,1.81s1.81-.81,1.81-1.81v-8.1c0-1-.81-1.81-1.81-1.81Z"/></svg>