<?xml version="1.0" encoding="UTF-8"?><svg id="Layer_1" xmlns="http://www.w3.org/2000/svg" viewBox="0 0 50 40"><defs><style>.cls-1{fill:#5ebdb2;}</style></defs><path class="cls-1" d="M39.43,9.1c-2.7-.67-5.31.47-6.74,2.57-.53.78-.18,1.85.69,2.18l.08.03c.64.25,1.36,0,1.76-.56.71-1,1.95-1.57,3.29-1.32,1.31.25,2.36,1.32,2.58,2.64.35,2.05-1.23,3.84-3.22,3.84H6.55c-.4,0-.73.33-.73.73v1.57c0,.4.33.73.73.73h31.33c3.74,0,6.73-3.28,6.25-7.12-.32-2.55-2.21-4.67-4.7-5.3Z"/><path class="cls-1" d="M27.22,25.19H6.55c-.4,0-.73.33-.73.73v1.57c0,.4.33.73.73.73h20.72c1.16,0,2.19.82,2.36,1.97.21,1.43-.9,2.66-2.29,2.66-.46,0-.91-.14-1.28-.4-.46-.31-1.05-.35-1.54-.08l-.09.05c-.96.53-1.02,1.87-.13,2.5s1.93.96,3.03.96c3.11,0,5.61-2.67,5.32-5.84-.25-2.77-2.66-4.85-5.45-4.85Z"/><path class="cls-1" d="M19.69,4.12c-1.11,0-2.16.34-3.03.96-.9.63-.83,1.97.13,2.5l.03.02c.5.27,1.12.27,1.59-.05.65-.44,1.51-.55,2.32-.15.63.31,1.09.91,1.23,1.6.29,1.48-.84,2.78-2.27,2.78H6.55c-.4,0-.73.33-.73.73v1.57c0,.4.33.73.73.73h13.14c1.64,0,3.02-.57,3.98-1.66.85-.97,1.33-2.28,1.33-3.69,0-2.57-1.66-5.34-5.3-5.34Z"/></svg>