<?xml version="1.0" encoding="UTF-8"?><svg id="Layer_1" xmlns="http://www.w3.org/2000/svg" viewBox="0 0 50 40"><defs><style>.cls-1{fill:#53b4a8;}</style></defs><circle class="cls-1" cx="21.57" cy="20.25" r="2.64" transform="translate(-6.11 9.79) rotate(-22.5)"/><circle class="cls-1" cx="21.57" cy="10.78" r="2.64" transform="translate(-2.48 9.07) rotate(-22.5)"/><circle class="cls-1" cx="21.57" cy="2.36" r="1.58"/><circle class="cls-1" cx="21.57" cy="29.73" r="2.64" transform="translate(-7.69 7.53) rotate(-16.85)"/><circle class="cls-1" cx="21.57" cy="38.14" r="1.58"/><path class="cls-1" d="M37.87,12.35c.87,0,1.58-.71,1.58-1.58s-.71-1.58-1.58-1.58-1.58.71-1.58,1.58.71,1.58,1.58,1.58Z"/><circle class="cls-1" cx="5.25" cy="28.67" r="1.58"/><circle class="cls-1" cx="5.25" cy="10.78" r="1.58"/><circle class="cls-1" cx="5.25" cy="19.72" r="1.58"/><circle class="cls-1" cx="29.45" cy="14.99" r="2.64" transform="translate(-3.49 12.41) rotate(-22.5)"/><path class="cls-1" d="M29.45,8.15c.87,0,1.58-.71,1.58-1.58s-.71-1.58-1.58-1.58-1.58.71-1.58,1.58.71,1.58,1.58,1.58Z"/><circle class="cls-1" cx="13.67" cy="14.99" r="2.64"/><circle class="cls-1" cx="13.67" cy="6.57" r="1.58"/><circle class="cls-1" cx="13.67" cy="25.51" r="2.64"/><circle class="cls-1" cx="13.67" cy="33.93" r="1.58"/><path class="cls-1" d="M36.55,17.97c-5.79,0-10.48,4.69-10.48,10.48s4.69,10.48,10.48,10.48,10.48-4.69,10.48-10.48-4.69-10.48-10.48-10.48ZM34.67,31.74v2.02h-5.59v-1.8l2.56-3.66c.15-.21.27-.4.37-.55.1-.15.2-.33.31-.55.11-.21.19-.43.25-.64.06-.21.08-.42.08-.62,0-.12-.01-.24-.04-.37-.03-.12-.07-.25-.13-.36s-.14-.21-.24-.28-.22-.11-.35-.11c-.11,0-.21.03-.29.08s-.16.12-.21.21c-.05.09-.1.19-.14.3-.04.11-.07.23-.08.36-.02.13-.03.25-.04.38-.01.13-.02.25-.01.36,0,.11,0,.22,0,.32v.14h-2.01v-.66c0-.39.03-.74.09-1.06.06-.32.16-.62.3-.9.14-.28.32-.51.53-.7s.48-.34.79-.45.67-.16,1.07-.16c.89,0,1.57.26,2.06.78.49.52.73,1.23.73,2.12,0,.46-.07.92-.22,1.37s-.35.89-.62,1.31-.53.79-.78,1.11c-.25.32-.55.68-.89,1.08-.35.4-.6.71-.76.93h3.27ZM37.43,33.76h-1.9v-1.85h1.9v1.85ZM43.92,31.9c-.07.31-.18.58-.32.82-.14.24-.31.45-.51.65s-.45.34-.75.44c-.3.1-.64.15-1.02.15-.43,0-.81-.06-1.14-.19-.33-.12-.59-.29-.8-.5-.2-.21-.37-.47-.5-.78-.13-.31-.21-.63-.26-.96-.05-.33-.07-.7-.07-1.11h2.02c0,.19,0,.35,0,.48,0,.13.01.27.02.43.01.15.03.28.06.38.03.1.07.19.12.28.05.09.11.15.19.19.08.04.16.06.27.06.13,0,.24-.03.34-.08.1-.05.18-.12.25-.21s.12-.19.16-.3c.04-.11.08-.24.1-.37.02-.13.04-.26.05-.4.01-.13.02-.26.01-.39s0-.24,0-.35v-.16c0-.12,0-.22,0-.31,0-.09-.01-.2-.03-.33-.02-.13-.04-.24-.08-.34-.04-.1-.08-.19-.14-.28s-.13-.16-.22-.21c-.09-.05-.2-.07-.32-.07-.19,0-.36.08-.51.25s-.26.36-.35.57h-1.72v-6.04h5v2h-3.11v1.9c.37-.23.71-.34,1.02-.34.37,0,.71.06,1,.18.29.12.52.28.7.48.18.2.32.44.44.72.11.28.19.58.24.87.04.3.06.62.06.97s-.02.67-.05.97c-.03.3-.08.6-.16.91Z"/></svg>