<?xml version="1.0" encoding="UTF-8"?><svg id="Layer_1" xmlns="http://www.w3.org/2000/svg" viewBox="0 0 50 40"><defs><style>.cls-1{fill:#5ebdb2;}</style></defs><circle class="cls-1" cx="21.44" cy="20" r="2.64"/><circle class="cls-1" cx="21.44" cy="10.51" r="2.64"/><circle class="cls-1" cx="21.44" cy="2.08" r="1.58"/><circle class="cls-1" cx="21.44" cy="29.49" r="2.64"/><circle class="cls-1" cx="21.44" cy="37.92" r="1.58"/><circle class="cls-1" cx="37.77" cy="10.51" r="1.58"/><circle class="cls-1" cx="5.1" cy="28.43" r="1.58"/><circle class="cls-1" cx="5.1" cy="10.51" r="1.58"/><circle class="cls-1" cx="5.1" cy="19.47" r="1.58"/><circle class="cls-1" cx="29.34" cy="14.73" r="2.64"/><circle class="cls-1" cx="29.34" cy="6.3" r="1.58"/><circle class="cls-1" cx="13.53" cy="14.73" r="2.64"/><circle class="cls-1" cx="13.53" cy="6.3" r="1.58"/><circle class="cls-1" cx="13.53" cy="25.27" r="2.64"/><circle class="cls-1" cx="13.53" cy="33.7" r="1.58"/><path class="cls-1" d="M36.3,17.67c-5.62,0-10.18,4.56-10.18,10.18s4.56,10.18,10.18,10.18,10.18-4.56,10.18-10.18-4.56-10.18-10.18-10.18ZM34.62,31.2v2.07h-5.74v-1.85l2.62-3.75c.15-.22.28-.41.38-.56.1-.16.21-.34.32-.56.11-.22.2-.44.26-.65.06-.22.09-.43.09-.63,0-.12-.01-.25-.04-.38-.03-.13-.07-.25-.13-.37-.06-.12-.14-.22-.25-.29-.11-.07-.23-.11-.36-.11-.11,0-.21.03-.3.08-.09.05-.16.12-.22.21-.06.09-.1.19-.14.31-.04.12-.07.24-.08.37-.02.13-.03.26-.04.39-.01.13-.02.26-.01.37,0,.12,0,.23,0,.33v.14h-2.07v-.68c0-.4.03-.76.1-1.09.06-.33.17-.64.31-.92.14-.28.33-.52.54-.72.22-.2.49-.35.81-.46.32-.11.69-.16,1.1-.16.91,0,1.61.27,2.11.8.5.53.75,1.26.75,2.17,0,.48-.07.95-.22,1.41-.15.47-.36.91-.64,1.34-.28.43-.54.81-.8,1.13-.26.33-.56.7-.92,1.11-.36.41-.61.73-.78.95h3.35ZM37.45,33.27h-1.95v-1.9h1.95v1.9ZM43.62,31.36c-.08.32-.18.6-.33.84-.14.25-.32.47-.52.66-.21.2-.46.35-.77.45s-.66.16-1.05.16c-.44,0-.83-.06-1.17-.19-.34-.13-.61-.3-.82-.52-.21-.22-.38-.48-.51-.8-.13-.32-.22-.65-.27-.99-.05-.34-.07-.72-.07-1.14h2.07c0,.2,0,.36,0,.49,0,.13.01.28.02.44.01.16.03.29.06.39.03.1.07.19.12.28.05.09.11.16.19.2.08.04.17.06.27.06.13,0,.25-.03.35-.08.1-.05.19-.12.25-.21.06-.09.12-.19.16-.31.05-.12.08-.24.1-.38.02-.13.04-.27.05-.41.01-.14.02-.27.01-.4,0-.13,0-.25,0-.36v-.16c0-.12,0-.22,0-.31s-.01-.2-.03-.34c-.02-.13-.04-.25-.08-.35-.04-.1-.08-.19-.14-.28-.06-.09-.13-.16-.23-.21-.09-.05-.2-.07-.33-.07-.2,0-.37.08-.52.25-.15.17-.27.36-.36.58h-1.77v-6.19h5.13v2.05h-3.19v1.95c.38-.24.73-.35,1.05-.35.38,0,.72.06,1.02.19.3.12.54.29.72.49.18.2.33.45.45.74.12.29.2.59.24.9.04.31.07.64.07,1s-.02.69-.05.99c-.03.31-.09.62-.16.93Z"/></svg>