<?xml version="1.0" encoding="UTF-8"?><svg id="Layer_1" xmlns="http://www.w3.org/2000/svg" viewBox="0 0 50 40"><defs><style>.cls-1{fill:#5ebdb2;}</style></defs><path class="cls-1" d="M44.71,17.37c-.26-1.89-1.75-3.89-4.41-3.92-.71-1.6-1.58-3.01-2.59-4.17.81-.78,1.28-1.88,1.3-3.05.03-1.54-.68-2.96-1.91-3.81-1.26-.87-2.87-1.05-4.3-.47-1.09.44-1.92,1.25-2.37,2.29-1.93-.66-3.89-.98-5.7-.91C23.97.89,21.68.04,19.85.29c-2.08.29-4.17,1.98-3.86,5.01.02.18.08.37.14.6,0,0,0,.02,0,.03-.16.1-.35.22-.48.3-.28.17-.45.28-.54.35-.19.13-.36.28-.54.43-.96-1.08-2.29-1.66-3.64-1.62-1.34.05-2.56.7-3.42,1.83-.94,1.23-1.15,2.85-.58,4.32.46,1.17,1.35,2.09,2.48,2.55-.35,1.03-.7,2.12-.89,3.26-2.51.73-3.45,3-3.26,4.84.2,1.83,1.59,3.85,4.2,4.03.58,1.5,1.35,2.86,2.28,4.05-.23.21-.38.35-.47.46-.99,1.23-1.25,2.86-.71,4.35.54,1.5,1.79,2.58,3.33,2.89,2,.41,3.94-.52,4.89-2.33,1.31.53,2.75.9,4.31,1.11.87,2.19,2.74,2.98,4.23,2.98.23,0,.45-.02.67-.05,2.46-.37,3.71-2.41,3.88-4.31,1.21-.56,2.33-1.24,3.35-2.04,1.42,1.78,3.59,1.92,5.17,1.25,1.81-.77,3.37-2.84,2.53-5.56-.35-1.13-1.32-2.19-2.45-2.71.5-1.27.86-2.63,1.05-4.04,2.54-.74,3.42-3.05,3.17-4.92ZM40.34,19.65c-.41.04-1.36.15-1.55,1.28-.07.41-.13.79-.18,1.16-.15.99-.27,1.85-.68,2.95-.05.13-.18.4-.31.68-.41.87-.58,1.25-.6,1.56-.02.43.1.78.34,1.04.4.43.97.44,1.35.44.1,0,.19,0,.26.01.71.11,1.11.7,1.24,1.21.14.54.08,1.29-.53,1.78-.41.32-.93.44-1.44.32-.51-.12-.93-.45-1.15-.92-.03-.06-.05-.15-.08-.24-.1-.35-.34-1.18-1.36-1.24-.55-.02-1.08.41-1.82,1.09-.14.13-.27.25-.35.31-.74.57-1.48,1.05-2.13,1.4-.12.06-.4.17-.67.29-.91.38-1.2.51-1.39.7-.44.44-.39,1.09-.35,1.66.01.16.03.38.02.46-.11.8-.82,1.23-1.48,1.3-.29.03-1.32.06-1.69-.97-.04-.1-.05-.22-.07-.35-.06-.39-.15-.98-.77-1.4l-.11-.07-.25-.05c-1.73-.15-3.02-.4-4.18-.81-.18-.06-.49-.21-.82-.37-.69-.33-1.14-.54-1.5-.59-.09-.01-.18-.02-.26-.02-1.14,0-1.34,1.11-1.43,1.59-.03.17-.07.37-.11.47-.3.61-.74.92-1.34.92-.72,0-1.46-.49-1.75-1.14-.25-.55-.14-1.1.33-1.65.14-.16.46-.32.69-.44.32-.16.59-.3.77-.55.73-1.01-.22-2.03-.73-2.58-.12-.13-.23-.24-.29-.33-.64-.87-1.21-1.84-1.64-2.8-.05-.11-.14-.36-.22-.59-.28-.8-.41-1.15-.61-1.37-.54-.59-1.2-.45-1.49-.4-.09.02-.16.03-.22.03-1.13,0-1.62-.78-1.71-1.51-.09-.75.26-1.61,1.25-1.83.06-.01.15-.02.25-.02.39-.02,1.2-.07,1.53-.89.13-.33.17-.74.21-1.17.02-.2.04-.4.07-.54.18-.83.41-1.62.68-2.35.04-.12.16-.35.29-.62.35-.72.5-1.07.53-1.35.04-.43-.06-.79-.3-1.06-.4-.44-.98-.45-1.37-.45-.08,0-.16,0-.22,0-.84-.11-1.31-.72-1.46-1.25-.19-.66.01-1.32.55-1.76.39-.32.9-.45,1.4-.36.47.09.88.38,1.11.8.04.07.08.19.11.3.14.44.44,1.34,1.42,1.36h0c.55,0,1.05-.43,1.67-1.03.1-.1.2-.19.25-.24.33-.27.71-.57,1.07-.82.12-.08.39-.23.65-.37.7-.39,1-.57,1.18-.77.69-.77.24-1.57.04-1.93-.05-.09-.1-.17-.12-.24-.35-1.07.23-1.77.89-2.08.68-.31,1.6-.25,2.13.61.14.22.15.43.18.73.02.27.05.61.22.93.46.9,1.61.76,2.35.67.13-.02.26-.04.33-.03,1.28.03,2.66.23,3.86.58.45.13.89.3,1.36.49.31.12.63.25.96.36l.17.06.18-.02c1.19-.15,1.33-1.2,1.39-1.72.03-.2.05-.39.11-.51.29-.62.73-.94,1.33-.95h.02c.72,0,1.46.46,1.77,1.09.26.54.16,1.1-.3,1.67-.12.15-.43.33-.67.46-.32.18-.59.34-.76.6-.67,1.01.29,1.96.8,2.46.12.12.23.23.3.31.89,1.1,1.55,2.14,2.19,3.5.04.09.09.22.14.36.14.42.29.85.6,1.13.63.57,1.3.38,1.62.29.08-.02.18-.05.24-.05.33,0,.92.26,1.17.51.42.42.58,1.02.42,1.61-.16.6-.59,1.05-1.16,1.21-.1.03-.22.04-.35.06Z"/><path class="cls-1" d="M27.1,13.93c-1-2.57-3.46-4.02-6.27-3.68-2.06.25-4.1,2.08-4.64,4.18-.63,2.44.29,4.93,2.35,6.33.99.68,2.09,1.02,3.2,1.02,1.16,0,2.32-.37,3.35-1.11,2.2-1.57,2.98-4.22,2.01-6.74ZM25.23,17.85c-.59,1.27-1.74,2.02-3.22,2.11-2.6.16-3.95-1.69-4.13-3.6-.18-1.85.73-3.99,3.18-4.32.25-.03.48-.05.72-.05,1.29,0,2.36.51,3.06,1.46.9,1.22,1.06,2.99.4,4.4Z"/><path class="cls-1" d="M31.99,19.41c-1.29-.34-2.56.04-3.58,1.07-1.76,1.78-1.3,4.09.06,5.45.72.72,1.71,1.21,2.78,1.21.87,0,1.79-.34,2.63-1.16,1.04-1.02,1.42-2.3,1.07-3.6-.37-1.41-1.56-2.6-2.96-2.97ZM31.21,25.56c-.87.01-1.57-.36-1.98-1.05-.45-.76-.47-1.79-.04-2.55.39-.7,1.09-1.08,1.96-1.09,1.57,0,2.29,1.18,2.31,2.31.02,1.13-.68,2.36-2.24,2.39Z"/><path class="cls-1" d="M21.66,24.4c-2.03.28-2.88,2.02-2.68,3.61.18,1.38,1.22,2.75,3.11,2.75.17,0,.34-.01.52-.03,1.09-.14,1.93-.75,2.34-1.74.47-1.13.3-2.54-.44-3.5-.66-.86-1.68-1.25-2.86-1.09ZM23.43,28.54c-.34.53-.93.76-1.67.66-.89-.12-1.29-.94-1.29-1.64,0-.67.37-1.5,1.38-1.63.69-.09,1.25.15,1.58.67.36.58.36,1.38,0,1.94Z"/></svg>