<?xml version="1.0" encoding="UTF-8"?><svg id="Layer_1" xmlns="http://www.w3.org/2000/svg" viewBox="0 0 50 40"><defs><style>.cls-1{fill:#5ebdb2;}</style></defs><path class="cls-1" d="M38.79,8.32l-.3-.37c-.82-1.01-1.26-1.49-2.29-1.29-.24.05-.42.26-.5.38-.19.29-.28.67-.22.96.09.19.85,1.14,1.35,1.77.62.77,1.21,1.5,1.46,1.93,3.44,5.84,3.07,12.49-1.02,18.26-.21.29-.47.57-.76.87-1.05,1.1-1.41,1.63-.7,2.41.31.34.59.36.76.34.42-.04,1.62-.48,3.57-3.68,4.15-6.8,3.59-15.67-1.35-21.57Z"/><path class="cls-1" d="M34.72,13.96c-.88-1.05-1.32-1.31-2.19-.83-.33.18-.51.38-.55.59-.1.52.52,1.31,1.02,1.95.3.39.59.75.76,1.1,1.08,2.17.95,4.87-.32,7.05-.16.27-.38.56-.62.86-.92,1.17-1.1,1.63-.46,2.21.42.38.74.37.95.33.94-.19,2.01-1.71,2.62-3.03,1.55-3.42,1.07-7.53-1.19-10.22Z"/><path class="cls-1" d="M17.13,36.67c.2.04.55.07.7-.13,1.26-1.17,2.65-2.26,3.99-3.32,1.52-1.2,3.09-2.44,4.43-3.73l.29-.27c.97-.91,1.61-1.52.65-2.75l-7.67-6.58,7.73-6.42c.51-.76.54-1.26.13-1.92L17.74,3.42c-.16-.14-.48-.16-.86-.04-.56.17-.98.51-1.06.7v12.33l-.31-.08c-.52-.13-1.05-.58-1.48-.94l-.24-.2c-.31-.25-.81-.71-1.4-1.24-1.21-1.1-3.04-2.77-3.62-2.96-.68-.22-1.36.05-1.78.69-.57.87-.06,1.46.85,2.33.1.09.2.19.29.28,1.08,1.06,2.38,2.08,3.63,3.06.97.76,1.98,1.56,2.88,2.36l.21.19-7.75,6.65c-.5.66-.35,1.47.04,1.97.33.43.96.76,1.72.44l6.95-5.57v12.57c.04.13.65.59,1.31.71ZM18.79,8.16l4.98,4.35-4.98,4.11v-8.46ZM18.79,23.4l.52.4c.91.7,1.86,1.43,2.72,2.19l.18.15c1.22,1.05,1.43,1.33,1.43,1.56v.12l-4.84,4v-8.42Z"/></svg>