<?xml version="1.0" encoding="UTF-8"?><svg id="Layer_1" xmlns="http://www.w3.org/2000/svg" viewBox="0 0 50 40"><defs><style>.cls-1{fill:#5ebdb2;}</style></defs><path class="cls-1" d="M16.04,26.02l-2.59-12.08h1.73l1.27,6.47.44,3.02.46-3.02,1.27-6.47h1.73l-2.59,12.08h-1.73Z"/><path class="cls-1" d="M24.97,26.14c-.61,0-1.13-.09-1.56-.28-.43-.18-.78-.45-1.03-.81-.26-.36-.44-.77-.56-1.25-.12-.48-.18-1.03-.18-1.67v-4.38c0-.63.06-1.19.18-1.66s.3-.88.56-1.23c.26-.35.6-.61,1.03-.79.43-.18.95-.26,1.56-.26,1.18,0,2.03.34,2.55,1.01s.78,1.65.78,2.93v4.38c0,.62-.06,1.18-.18,1.65-.12.48-.31.9-.56,1.25-.26.36-.6.63-1.03.82-.43.19-.95.28-1.55.28ZM23.71,24.18c.23.36.65.55,1.26.55s1.03-.18,1.26-.55c.23-.36.35-.9.35-1.61v-5.24c0-.7-.12-1.22-.34-1.57-.23-.35-.65-.52-1.26-.52s-1.03.17-1.26.52c-.23.35-.34.87-.34,1.57v5.24c0,.71.12,1.25.35,1.61Z"/><path class="cls-1" d="M33.53,26.14c-.51,0-.96-.07-1.34-.22-.39-.14-.7-.34-.95-.6-.25-.25-.45-.57-.6-.95-.16-.38-.26-.79-.33-1.22s-.09-.92-.09-1.46v-3.44c0-.54.03-1.03.09-1.46s.17-.84.33-1.22c.15-.38.36-.7.6-.95s.56-.45.95-.59c.39-.14.83-.22,1.34-.22.56,0,1.05.08,1.46.25s.74.41.98.73c.25.32.43.7.55,1.13.12.43.2.93.22,1.5,0,.09,0,.22,0,.4h-1.73v-.38c0-.24-.01-.44-.03-.61-.01-.17-.04-.34-.07-.52s-.09-.33-.16-.45c-.07-.12-.16-.23-.26-.33-.11-.1-.24-.18-.4-.22-.16-.05-.35-.07-.57-.07-.28,0-.52.04-.72.13-.2.09-.36.21-.47.35-.11.14-.2.33-.26.57-.06.24-.1.47-.12.7-.02.23-.03.51-.03.84v4.31c0,.29.01.55.04.78.03.23.07.47.14.7.07.23.17.43.28.58.11.16.27.28.46.38.19.1.41.14.67.14s.48-.05.66-.15.33-.22.44-.38c.11-.15.19-.35.25-.59.06-.24.1-.47.12-.69.02-.22.03-.49.03-.78v-.43h1.73v.43c0,.62-.06,1.17-.17,1.64-.11.47-.29.89-.53,1.25-.24.36-.58.64-1,.83-.42.19-.93.28-1.52.28Z"/><path class="cls-1" d="M32.7,4.01c.95,0,1.82.5,2.29,1.32l2.2,3.82,2.56-1.59-3.06-5.3c-.45-.78-1.28-1.26-2.18-1.26h-6.76v3.01h4.94Z"/><path class="cls-1" d="M7.3,21.32c-.47-.82-.47-1.83,0-2.65l2.61-4.52-2.58-1.55-3.55,6.14c-.45.78-.45,1.73,0,2.51l3.69,6.4,2.56-1.59-2.74-4.74Z"/><path class="cls-1" d="M42.7,18.68c.47.82.47,1.83,0,2.65l-2.61,4.53,2.58,1.55,3.55-6.14c.45-.78.45-1.73,0-2.51l-3.69-6.4-2.56,1.59,2.74,4.74Z"/><path class="cls-1" d="M15,5.33c.47-.82,1.35-1.32,2.29-1.32h4.94V1h-6.76c-.9,0-1.73.48-2.18,1.26l-3.21,5.56,2.58,1.55,2.33-4.03Z"/><path class="cls-1" d="M35,34.67c-.47.82-1.35,1.32-2.29,1.32h-4.94v3.01h6.76c.9,0,1.73-.48,2.18-1.26l3.21-5.56-2.58-1.55-2.33,4.03Z"/><path class="cls-1" d="M17.3,35.99c-.95,0-1.82-.5-2.29-1.32l-2.2-3.82-2.56,1.59,3.06,5.3c.45.78,1.28,1.26,2.18,1.26h6.76v-3.01h-4.94Z"/></svg>