<?xml version="1.0" encoding="UTF-8"?><svg id="Layer_1" xmlns="http://www.w3.org/2000/svg" viewBox="0 0 24 24"><defs><style>.cls-1{fill:#5ebdb2;}</style></defs><g transform="translate(-9 -9) scale(0.7)"><path class="cls-1" d="M32.1,32.72v-13.28c0-1.76-1.18-3.39-2.9-3.74-2.36-.48-4.44,1.32-4.44,3.59v13.42c-1.95,1.37-3.1,3.8-2.6,6.45.47,2.51,2.48,4.55,4.99,5.04,4.09.79,7.67-2.32,7.67-6.27,0-2.16-1.08-4.07-2.72-5.22ZM29.1,17.34c.86.27,1.4,1.13,1.4,2.03v8.83h-4.14v-8.9c0-1.36,1.32-2.41,2.74-1.96Z"/><path class="cls-1" d="M35.95,19.77h0c0,.55.36,1,.8,1h4.37c.44,0,.8-.45.8-1h0c0-.55-.36-1-.8-1h-4.37c-.44,0-.8.45-.8,1Z"/><path class="cls-1" d="M36.76,26.39h4.37c.44,0,.8-.45.8-1h0c0-.55-.36-1-.8-1h-4.37c-.44,0-.8.45-.8,1h0c0,.55.36,1,.8,1Z"/><path class="cls-1" d="M36.76,32.02h4.37c.44,0,.8-.45.8-1h0c0-.55-.36-1-.8-1h-4.37c-.44,0-.8.45-.8,1h0c0,.55.36,1,.8,1Z"/></g></svg>
