<?xml version="1.0" encoding="UTF-8"?><svg id="Layer_1" xmlns="http://www.w3.org/2000/svg" viewBox="0 0 50 40"><defs><style>.cls-1{fill:#5ebdb2;}</style></defs><path class="cls-1" d="M34.52,1H15.48c-.9,0-1.73.48-2.18,1.26L3.79,18.74c-.45.78-.45,1.73,0,2.51l9.52,16.49c.45.78,1.28,1.26,2.18,1.26h19.04c.9,0,1.73-.48,2.18-1.26l9.52-16.49c.45-.78.45-1.73,0-2.51L36.69,2.26c-.45-.78-1.28-1.26-2.18-1.26ZM32.7,35.99h-15.41c-.95,0-1.82-.5-2.29-1.32l-7.7-13.34c-.47-.82-.47-1.83,0-2.65l7.7-13.34c.47-.82,1.35-1.32,2.29-1.32h15.41c.95,0,1.82.5,2.29,1.32l7.7,13.34c.47.82.47,1.83,0,2.65l-7.7,13.34c-.47.82-1.35,1.32-2.29,1.32Z"/><path class="cls-1" d="M14.28,26.04v-12.08h1.29l3.02,7.47v-7.47h1.73v12.08h-1.23l-3.09-8.04v8.04h-1.73Z"/><path class="cls-1" d="M25.78,26.16c-.61,0-1.13-.09-1.56-.28-.43-.18-.78-.45-1.03-.81-.26-.36-.44-.77-.56-1.25-.12-.48-.18-1.03-.18-1.67v-4.38c0-.63.06-1.19.18-1.66s.3-.88.56-1.23c.26-.35.6-.61,1.03-.79.43-.18.95-.26,1.56-.26,1.18,0,2.03.34,2.55,1.01s.78,1.65.78,2.93v4.38c0,.62-.06,1.18-.18,1.65-.12.48-.31.9-.56,1.25-.26.36-.6.63-1.03.82-.43.19-.95.28-1.55.28ZM24.52,24.2c.23.36.65.55,1.26.55s1.03-.18,1.26-.55c.23-.36.35-.9.35-1.61v-5.24c0-.7-.12-1.22-.34-1.57-.23-.35-.65-.52-1.26-.52s-1.03.17-1.26.52c-.23.35-.34.87-.34,1.57v5.24c0,.71.12,1.25.35,1.61Z"/><path class="cls-1" d="M30.5,26.04l1.73-4.31v-.18l-1.73-4.14h1.66l1.15,3.3,1.15-3.3h1.64l-1.73,4.14v.18l1.73,4.31h-1.73l-1.02-3.32-1.13,3.32h-1.73Z"/></svg>