<?xml version="1.0" encoding="UTF-8"?><svg id="Layer_1" xmlns="http://www.w3.org/2000/svg" viewBox="0 0 50 40"><defs><style>.cls-1{fill:#5ebdb2;}</style></defs><path class="cls-1" d="M27.74,6.05h-.25V1.45c0-.19-.1-.34-.28-.42-.17-.07-.36-.04-.49.1l-5.93,5.93c-.17.17-.18.45,0,.63l5.93,6.23c.13.14.32.18.49.11.18-.07.28-.23.28-.42v-4.67h.25c3.85,0,7.53,1.65,10.11,4.52,2.61,2.91,3.82,6.66,3.4,10.56-.66,6.13-5.58,11.16-11.69,11.97-2.36.31-4.76,0-6.94-.89-.06-.02-.13-.04-.19-.04-.14,0-.27.05-.37.15l-1.41,1.41c-.12.12-.17.29-.15.46.03.17.14.32.3.39,2.43,1.13,5.03,1.63,7.74,1.51,8.37-.4,15.1-7,15.64-15.36.3-4.61-1.27-9-4.42-12.36-3.1-3.31-7.49-5.21-12.02-5.21Z"/><path class="cls-1" d="M15.26,11.68l-8.74,8.74c-.98.98-.98,2.57,0,3.55l8.74,8.74c.98.98,2.57.98,3.55,0l8.74-8.74c.98-.98.98-2.57,0-3.55l-8.74-8.74c-.98-.98-2.57-.98-3.55,0ZM9.77,21.17l6.24-6.24c.57-.57,1.49-.57,2.07,0l6.24,6.24c.57.57.57,1.49,0,2.07l-6.24,6.24c-.57.57-1.49.57-2.07,0l-6.24-6.24c-.57-.57-.57-1.49,0-2.07Z"/></svg>