<?xml version="1.0" encoding="UTF-8"?><svg id="Layer_1" xmlns="http://www.w3.org/2000/svg" viewBox="0 0 50 40"><defs><style>.cls-1{fill:#5ebdb2;}</style></defs><path class="cls-1" d="M42.69,33.9l-1.85-6.9c-.1-.36-.58-.43-.77-.1l-2.1,3.64-11.84-6.84v-13.59s4.18,0,4.18,0c.37,0,.56-.45.3-.72l-5.05-5.05c-.16-.16-.43-.16-.59,0l-5.05,5.05c-.26.26-.08.72.3.72h4.18v13.56s-11.77,6.8-11.77,6.8l.04.06-.06.04-2.14-3.71c-.19-.32-.67-.26-.77.1l-1.85,6.9c-.06.22.07.45.3.51l6.9,1.85c.36.1.66-.29.47-.62l-2.05-3.55,11.81-6.82,11.83,6.83-2.07,3.59c-.19.32.11.71.47.62l6.9-1.85c.22-.06.36-.29.3-.51Z"/><path class="cls-1" d="M39.59,7.98c-4.49,0-8.13,3.64-8.13,8.13s3.64,8.13,8.13,8.13,8.13-3.64,8.13-8.13-3.64-8.13-8.13-8.13ZM42.32,11.79l-3.6,8.81h3.6v1.2h-5.2v-1.2l3.6-8.81h-3.2v-1.2h4.8v1.2Z"/></svg>