<?xml version="1.0" encoding="UTF-8"?><svg id="Layer_1" xmlns="http://www.w3.org/2000/svg" viewBox="0 0 50 40"><defs><style>.cls-1{fill:#5ebdb2;}</style></defs><path class="cls-1" d="M37.1,23.76v-12.73c0-3.17-2.55-5.75-5.71-5.8-.13-2.36-2.08-4.23-4.47-4.23h-3.85c-2.39,0-4.34,1.88-4.47,4.23-3.16.05-5.71,2.63-5.71,5.8v22.05c0,3.26,2.6,5.92,5.8,5.92h12.62c3.2,0,5.8-2.66,5.8-5.92v-9.32h-.01ZM34.06,33.08c0,1.58-1.24,2.87-2.75,2.87h-12.62c-1.52,0-2.75-1.29-2.75-2.87V11.03c0-1.52,1.24-2.75,2.75-2.75h2.96v-2.81c0-.79.64-1.42,1.42-1.42h3.85c.79,0,1.42.64,1.42,1.42v2.81h2.96c1.52,0,2.75,1.24,2.75,2.75v15.78h.01v6.27Z"/><path class="cls-1" d="M31.71,21.71h-13.42v10.38c0,.85.69,1.54,1.54,1.54h10.34c.85,0,1.54-.69,1.54-1.54v-10.38Z"/></svg>