<?xml version="1.0" encoding="UTF-8"?><svg id="Layer_1" xmlns="http://www.w3.org/2000/svg" viewBox="0 0 50 40"><defs><style>.cls-1{fill:#5ebdb2;}</style></defs><circle class="cls-1" cx="22.44" cy="20" r="2.64"/><circle class="cls-1" cx="22.44" cy="10.51" r="2.64"/><circle class="cls-1" cx="22.44" cy="2.08" r="1.58"/><circle class="cls-1" cx="22.44" cy="29.49" r="2.64"/><circle class="cls-1" cx="22.44" cy="37.92" r="1.58"/><circle class="cls-1" cx="38.77" cy="10.51" r="1.58"/><circle class="cls-1" cx="6.1" cy="28.43" r="1.58"/><circle class="cls-1" cx="6.1" cy="10.51" r="1.58"/><circle class="cls-1" cx="6.1" cy="19.47" r="1.58"/><circle class="cls-1" cx="30.34" cy="14.73" r="2.64"/><circle class="cls-1" cx="30.34" cy="6.3" r="1.58"/><circle class="cls-1" cx="14.53" cy="14.73" r="2.64"/><circle class="cls-1" cx="14.53" cy="6.3" r="1.58"/><circle class="cls-1" cx="14.53" cy="25.27" r="2.64"/><circle class="cls-1" cx="14.53" cy="33.7" r="1.58"/><path class="cls-1" d="M42.37,24.24c-.16,0-.3.04-.41.12-.11.08-.2.18-.26.29-.06.11-.1.26-.14.43-.03.17-.05.32-.06.44,0,.12,0,.26,0,.41v4.86c0,.14,0,.27.02.4.01.13.03.28.07.44.04.16.08.31.14.43.06.12.15.22.26.3.11.08.24.12.39.12.18,0,.34-.06.47-.17.13-.12.22-.27.28-.46.06-.19.09-.37.12-.54.02-.17.03-.34.03-.52v-4.86c0-1.13-.29-1.7-.89-1.7Z"/><path class="cls-1" d="M37.45,17.72c-5.8,0-10.5,4.7-10.5,10.5s4.7,10.5,10.5,10.5,10.5-4.7,10.5-10.5-4.7-10.5-10.5-10.5ZM35.6,31.99v2.27h-6.28v-2.03l2.87-4.11c.17-.24.3-.45.41-.62.11-.17.23-.38.35-.62.12-.24.22-.48.28-.71.06-.24.09-.47.09-.69,0-.14-.02-.27-.05-.41-.03-.14-.08-.28-.15-.41s-.16-.24-.27-.32c-.12-.08-.25-.12-.4-.12-.12,0-.23.03-.33.09-.1.06-.18.13-.24.23-.06.1-.11.21-.16.34-.04.13-.07.26-.09.4-.02.14-.03.29-.05.43s-.02.28-.02.41c0,.13,0,.25,0,.36v.16h-2.26v-.74c0-.43.04-.83.1-1.19.07-.36.18-.7.34-1.01.16-.31.36-.57.6-.79.24-.21.54-.38.89-.5.35-.12.76-.18,1.21-.18,1,0,1.77.29,2.31.87.55.58.82,1.38.82,2.38,0,.52-.08,1.03-.25,1.54-.16.51-.4,1-.7,1.47-.3.47-.59.88-.87,1.24-.28.36-.61.76-1,1.22-.39.45-.67.8-.85,1.04h3.67ZM38.7,34.25h-2.13v-2.08h2.13v2.08ZM45.55,25.94v4.86c0,.5-.06.97-.2,1.41-.13.44-.32.83-.58,1.17-.26.34-.59.61-1,.81-.41.2-.88.3-1.4.3s-1-.1-1.41-.29c-.41-.2-.75-.47-1-.81-.25-.34-.44-.73-.57-1.17-.13-.44-.19-.91-.19-1.42v-4.86c0-.52.06-1.01.19-1.45.13-.44.31-.83.56-1.17s.58-.61.99-.8c.41-.19.89-.29,1.44-.29s1.02.1,1.43.29c.41.19.74.46.99.8.25.34.44.73.56,1.17.13.44.19.92.19,1.44Z"/></svg>