<?xml version="1.0" encoding="UTF-8"?><svg id="Layer_1" xmlns="http://www.w3.org/2000/svg" viewBox="0 0 50 40"><defs><style>.cls-1{fill:#5ebdb2;}</style></defs><path class="cls-1" d="M42.19,4.92c-.16-1.14-1.09-1.21-1.65-1.26h-.03c-.97-.08-1.98-.11-3.01-.14-2.84-.07-8.44-.04-14.09,1-5.78,1.06-10.12,2.88-12.91,5.41-2.53,2.29-3.27,5.5-2.25,9.8.58,2.45,1.77,4.95,3.53,7.43l.98,1.18s.13.18.34.42c-1.13,1.62-2.24,3.36-3.39,5.32-.26.45-.31.99-.14,1.48.15.41.44.74.82.94l3.96-6.3c.35.39.63.7.69.76.31.3.63.62.97.91,2.38,2.05,8.49,6.39,13.83,2.54,5.69-4.11,8.72-12.19,10.35-18.22.8-2.98,1.78-8.86,2.01-11.13v-.07s0-.07,0-.07ZM38.13,13.7l-.05.21c-1.44,5.87-3.06,10.02-5.27,13.46-1.71,2.66-4.57,5.83-7.03,6.03-2.95.24-6.43-1.92-8.7-4.02-.07-.07-.61-.69-1.22-1.4l.05-.07c1.41-1.91,3.07-3.69,5.08-5.45l.24-.21.25.19c1.65,1.22,3.89,1.85,6.32,1.77.26,0,.5-.12.67-.31.17-.19.24-.43.22-.68-.05-.47-.43-.86-.92-.81-1.88.04-3.46-.33-4.67-1.06l-.48-.29,6.25-4.98.22.09c1.23.53,2.68.81,4.43.86.23.01.45-.08.62-.24.17-.17.26-.39.26-.62,0-.51-.39-.91-.87-.93-.81-.04-1.53-.12-2.21-.25l-.88-.17,5.59-4.11c.06-.08.25-.62.11-1.01-.05-.14-.16-.34-.54-.41-.35-.07-.73.03-1.05.27l-9.58,7.22-.04-.73c-.08-1.3.1-2.58.51-3.8.15-.44-.04-.91-.45-1.11-.23-.11-.5-.12-.74-.03-.24.1-.43.3-.52.55-.71,2.04-.82,4.23-.32,6.15l.06.24-5.32,4.53-.2-.53c-.8-2.15-.87-4.5-.19-6.99.12-.45-.11-.91-.55-1.08-.24-.09-.49-.07-.72.04-.23.12-.4.33-.47.58-.81,2.95-.67,5.88.42,8.46.03.08.09.18.15.3l.29.55-.18.21c-.62.72-1.25,1.48-1.87,2.28l-.16.21c-.42-.5-.73-.86-.73-.86-1.63-2.25-2.75-4.59-3.24-6.77-.73-3.23-.25-5.49,1.51-7.09,5.39-4.89,17.22-5.61,20.72-5.71,1.74-.05,3.52,0,5.24.03.42,0,.83.02,1.25.03l-1.28,7.49Z"/></svg>