<?xml version="1.0" encoding="UTF-8"?><svg id="Layer_1" xmlns="http://www.w3.org/2000/svg" viewBox="0 0 50 40"><defs><style>.cls-1{fill:#5ebdb2;}</style></defs><circle class="cls-1" cx="21.28" cy="20" r="2.64"/><circle class="cls-1" cx="21.28" cy="10.51" r="2.64"/><circle class="cls-1" cx="21.28" cy="2.08" r="1.58"/><circle class="cls-1" cx="21.28" cy="29.49" r="2.64"/><circle class="cls-1" cx="21.28" cy="37.92" r="1.58"/><circle class="cls-1" cx="37.62" cy="10.51" r="1.58"/><circle class="cls-1" cx="4.94" cy="28.43" r="1.58"/><circle class="cls-1" cx="4.94" cy="10.51" r="1.58"/><circle class="cls-1" cx="4.94" cy="19.47" r="1.58"/><circle class="cls-1" cx="29.19" cy="14.73" r="2.64"/><circle class="cls-1" cx="29.19" cy="6.3" r="1.58"/><circle class="cls-1" cx="13.37" cy="14.73" r="2.64"/><circle class="cls-1" cx="13.37" cy="6.3" r="1.58"/><circle class="cls-1" cx="13.37" cy="25.27" r="2.64"/><circle class="cls-1" cx="13.37" cy="33.7" r="1.58"/><path class="cls-1" d="M36.46,17.67c-5.62,0-10.18,4.56-10.18,10.18s4.56,10.18,10.18,10.18,10.18-4.56,10.18-10.18-4.56-10.18-10.18-10.18ZM34.13,33.52h-2.06v-8.01h-1.09v-1.59c.11-.07.26-.15.45-.24.19-.09.33-.16.44-.22.1-.06.22-.15.35-.28.13-.13.24-.28.32-.46h1.59v10.79ZM41.94,30.35c0,.46-.06.89-.18,1.29-.12.4-.3.76-.53,1.07-.23.31-.54.56-.91.74-.38.18-.8.27-1.28.27s-.91-.09-1.29-.27c-.38-.18-.68-.43-.91-.74-.23-.31-.41-.67-.52-1.07s-.18-.83-.18-1.3v-4.44c0-.48.06-.92.17-1.32s.28-.76.51-1.07.53-.55.91-.73c.38-.18.82-.26,1.31-.26s.93.09,1.31.26c.38.18.68.42.91.73.23.31.4.67.51,1.07.11.4.17.84.17,1.32v4.44Z"/><path class="cls-1" d="M39.04,24.37c-.15,0-.27.04-.38.11-.1.08-.18.17-.24.27-.05.1-.1.23-.13.39-.03.16-.05.29-.05.4,0,.11,0,.23,0,.38v4.44c0,.12,0,.24.01.36,0,.12.03.25.06.4.03.15.08.28.13.39.06.11.13.2.24.28.1.08.22.11.36.11.17,0,.31-.05.42-.16s.2-.25.25-.42c.05-.18.09-.34.1-.49.02-.15.03-.31.03-.47v-4.44c0-1.03-.27-1.55-.81-1.55Z"/></svg>