<?xml version="1.0" encoding="UTF-8"?><svg id="Layer_1" xmlns="http://www.w3.org/2000/svg" viewBox="0 0 50 40"><defs><style>.cls-1{fill:#53b4a8;}</style></defs><circle class="cls-1" cx="21.57" cy="20.25" r="2.64" transform="translate(-6.11 9.79) rotate(-22.5)"/><circle class="cls-1" cx="21.57" cy="10.78" r="2.64" transform="translate(-2.48 9.07) rotate(-22.5)"/><path class="cls-1" d="M21.57,3.94c.87,0,1.58-.71,1.58-1.58s-.71-1.58-1.58-1.58-1.58.71-1.58,1.58.71,1.58,1.58,1.58Z"/><circle class="cls-1" cx="21.57" cy="29.73" r="2.64" transform="translate(-12.41 15.78) rotate(-31.72)"/><path class="cls-1" d="M21.57,36.57c-.87,0-1.58.71-1.58,1.58s.71,1.58,1.58,1.58,1.58-.71,1.58-1.58-.71-1.58-1.58-1.58Z"/><circle class="cls-1" cx="37.87" cy="10.78" r="1.58"/><circle class="cls-1" cx="5.25" cy="28.67" r="1.58"/><circle class="cls-1" cx="5.25" cy="10.78" r="1.58"/><circle class="cls-1" cx="5.25" cy="19.72" r="1.58"/><circle class="cls-1" cx="29.45" cy="14.99" r="2.64"/><circle class="cls-1" cx="29.45" cy="6.57" r="1.58"/><circle class="cls-1" cx="13.67" cy="14.99" r="2.64" transform="translate(-4.7 6.37) rotate(-22.5)"/><circle class="cls-1" cx="13.67" cy="6.57" r="1.58"/><circle class="cls-1" cx="13.67" cy="25.51" r="2.64" transform="translate(-8.72 7.17) rotate(-22.5)"/><circle class="cls-1" cx="13.67" cy="33.93" r="1.58"/><path class="cls-1" d="M36.55,17.97c-5.79,0-10.48,4.69-10.48,10.48s4.69,10.48,10.48,10.48,10.48-4.69,10.48-10.48-4.69-10.48-10.48-10.48ZM34.22,33.75h-2.01v-7.81h-1.06v-1.55c.11-.07.25-.14.44-.23s.32-.16.43-.21c.1-.05.21-.14.34-.27s.23-.27.32-.45h1.55v10.52ZM42.04,30.67c0,.45-.06.87-.18,1.26-.12.39-.29.74-.52,1.04-.23.3-.52.54-.89.72s-.78.27-1.24.27-.89-.09-1.26-.26c-.37-.18-.66-.41-.89-.72-.23-.3-.4-.65-.51-1.04-.11-.39-.17-.81-.17-1.26v-4.33c0-.47.06-.9.17-1.29.11-.39.28-.74.5-1.04.22-.3.52-.54.88-.71s.8-.26,1.28-.26.91.09,1.28.26c.37.17.66.41.88.72.22.31.39.65.5,1.04.11.39.17.82.17,1.28v4.33Z"/><path class="cls-1" d="M39.22,24.83c-.14,0-.27.04-.37.11-.1.07-.18.16-.23.26-.05.1-.09.23-.12.38-.03.15-.05.28-.05.39,0,.11,0,.23,0,.37v4.33c0,.12,0,.24.01.35,0,.11.03.25.06.39.03.15.07.27.13.38.05.11.13.2.23.27.1.07.22.11.35.11.16,0,.3-.05.41-.15.11-.1.19-.24.25-.41.05-.17.08-.33.1-.48.02-.15.03-.3.03-.46v-4.33c0-1.01-.26-1.51-.79-1.51Z"/></svg>