<?xml version="1.0" encoding="UTF-8"?><svg id="Layer_1" xmlns="http://www.w3.org/2000/svg" viewBox="0 0 50 40"><defs><style>.cls-1{fill:#5ebdb2;}</style></defs><path class="cls-1" d="M25,12.93c-3.9,0-7.07,3.16-7.07,7.07s3.16,7.07,7.07,7.07c.03,0,.06,0,.09,0v-14.13s-.06,0-.09,0Z"/><path class="cls-1" d="M25,13.18c3.76,0,6.82,3.06,6.82,6.82s-3.06,6.82-6.82,6.82-6.82-3.06-6.82-6.82,3.06-6.82,6.82-6.82M25,11.45c-4.72,0-8.55,3.83-8.55,8.55s3.83,8.55,8.55,8.55,8.55-3.83,8.55-8.55-3.83-8.55-8.55-8.55h0Z"/><path class="cls-1" d="M13.59,19.13h-6.93c-.33,0-.66.33-.66.66v.41c0,.33.33.66.66.66h6.93c.33,0,.66-.33.66-.66v-.41c0-.33-.33-.66-.66-.66Z"/><path class="cls-1" d="M43.34,19.13h-6.93c-.33,0-.66.33-.66.66v.41c0,.33.33.66.66.66h6.93c.33,0,.66-.33.66-.66v-.41c0-.33-.33-.66-.66-.66Z"/><path class="cls-1" d="M16.32,27.46l-4.9,4.9c-.23.23-.23.7,0,.93l.29.29c.23.23.7.23.93,0l4.9-4.9c.23-.23.23-.7,0-.93l-.29-.29c-.23-.23-.7-.23-.93,0Z"/><path class="cls-1" d="M37.36,6.42l-4.9,4.9c-.23.23-.23.7,0,.93l.29.29c.23.23.7.23.93,0l4.9-4.9c.23-.23.23-.7,0-.93l-.29-.29c-.23-.23-.7-.23-.93,0Z"/><path class="cls-1" d="M24.13,31.41v6.93c0,.33.33.66.66.66h.41c.33,0,.66-.33.66-.66v-6.93c0-.33-.33-.66-.66-.66h-.41c-.33,0-.66.33-.66.66Z"/><path class="cls-1" d="M24.13,1.66v6.93c0,.33.33.66.66.66h.41c.33,0,.66-.33.66-.66V1.66c0-.33-.33-.66-.66-.66h-.41c-.33,0-.66.33-.66.66Z"/><path class="cls-1" d="M32.46,28.68l4.9,4.9c.23.23.7.23.93,0l.29-.29c.23-.23.23-.7,0-.93l-4.9-4.9c-.23-.23-.7-.23-.93,0l-.29.29c-.23.23-.23.7,0,.93Z"/><path class="cls-1" d="M11.42,7.64l4.9,4.9c.23.23.7.23.93,0l.29-.29c.23-.23.23-.7,0-.93l-4.9-4.9c-.23-.23-.7-.23-.93,0l-.29.29c-.23.23-.23.7,0,.93Z"/></svg>