<?xml version="1.0" encoding="UTF-8"?><svg id="Layer_1" xmlns="http://www.w3.org/2000/svg" viewBox="0 0 50 40"><defs><style>.cls-1{fill:#5ebdb2;}</style></defs><path class="cls-1" d="M35.7,34.36c.15-.21.26-.38.35-.52.08-.14.18-.31.28-.52.1-.21.18-.44.22-.67.05-.23.07-.48.07-.75,0-.72-.19-1.28-.57-1.68-.38-.4-.93-.61-1.64-.61-.76,0-1.32.23-1.68.7-.35.45-.53,1.09-.53,1.9v.42h1.44v-.42c0-.19.01-.36.04-.52.03-.16.07-.31.13-.45.06-.13.13-.23.23-.3.1-.07.22-.1.37-.1.25,0,.43.1.56.29.14.21.21.47.21.78,0,.11,0,.22-.02.32-.02.11-.03.2-.05.28-.02.07-.05.16-.09.26-.04.1-.08.19-.11.24-.02.05-.07.13-.13.23-.07.11-.12.18-.14.22-.03.04-.08.12-.16.23l-2.28,3.24v1.35h4.43v-1.44h-2.85l1.94-2.49Z"/><path class="cls-1" d="M47.13,13.99l-.02-.03c-.68-1.18-2.96-2.81-3.34-3.04l-.06-.03c-3.25-1.57-4.73-1.68-7.81-1.2l-.25.04-.08-.24c-.27-.77-.73-1.45-1.13-2.02-.24-.34-.98-1.13-1.37-1.56-.13-.14-.22-.24-.26-.28-.93-1.07-2-1.65-3.04-2.21l-.24-.13c-2.1-1.05-4.41-1.58-6.73-1.58s-4.69.54-6.85,1.61c-3.86,1.92-6.4,5.23-7.15,9.31l-.04.2-.2.04C2.65,14.02.27,18.89.52,23.21c.25,4.28,3.14,8.79,9.02,9.34.03-.23.08-.78.08-2.11,0-.63-.42-1.19-1.02-1.36-3.54-.99-5.02-4.13-4.91-6.8.12-3.16,2.3-5.62,5.54-6.26.26-.05.54-.07.81-.09.99-.08,1.61-.17,1.84-1.11.16-.64.22-1.16.29-1.66.14-1.07.25-1.99,1.15-3.41,2.02-3.19,5.91-5.02,10.14-4.76,4.13.25,7.54,2.39,9.13,5.73l.15.31-.33.11c-1.36.44-4.42,3.25-4.5,5.08-.03.61.29,1.05.97,1.33,1.07.45,1.73-.27,2.68-1.52.35-.45.71-.92,1.1-1.26,2.39-2.05,5.22-2.61,7.97-1.58,2.93,1.1,5.2,3.89,5.64,6.94.42,2.93-.83,5.66-3.52,7.69-.21.16-.44.31-.66.45-.47.3-.96.62-1.19.99-.05.18-.1.36-.15.53,0,.27.1.56.3.9.26.44.6.68,1.03.74,1.39.19,3.34-1.53,3.9-2.06,4.2-3.96,4.7-10.73,1.14-15.39Z"/><path class="cls-1" d="M18.13,36.2c-.54,0-1.02-.08-1.43-.23-.41-.15-.75-.37-1.01-.64-.26-.27-.48-.61-.64-1.01-.17-.41-.28-.84-.35-1.3s-.1-.98-.1-1.56v-3.68c0-.58.03-1.1.1-1.56s.18-.89.35-1.3c.16-.41.38-.74.64-1.01s.6-.48,1.01-.63c.41-.15.89-.23,1.43-.23.6,0,1.12.09,1.55.27s.79.44,1.05.78c.26.35.46.75.59,1.2.13.46.21.99.23,1.6,0,.09,0,.23,0,.42h-1.84v-.41c0-.25-.02-.47-.03-.65-.02-.18-.04-.37-.08-.56s-.09-.35-.17-.48c-.07-.13-.17-.24-.28-.35-.11-.11-.26-.19-.43-.24-.17-.05-.37-.08-.6-.08-.3,0-.55.05-.77.14-.21.1-.38.22-.5.37-.12.15-.21.35-.28.61-.06.25-.11.5-.13.74-.02.24-.03.54-.03.9v4.6c0,.31.01.59.04.83.03.25.08.5.15.74.08.25.18.45.3.62.12.17.28.3.49.41.2.1.44.15.72.15s.51-.05.7-.16.35-.24.46-.4c.11-.16.2-.37.27-.63.07-.25.11-.5.13-.74.02-.24.03-.52.03-.83v-.46h1.84v.46c0,.67-.06,1.25-.18,1.76-.12.5-.31.95-.57,1.33-.26.39-.62.68-1.06.88-.45.2-.99.3-1.62.3Z"/><path class="cls-1" d="M26.77,36.2c-.65,0-1.2-.1-1.66-.29-.46-.2-.83-.48-1.1-.86-.27-.38-.47-.82-.6-1.33-.12-.51-.19-1.1-.19-1.78v-4.68c0-.68.06-1.27.19-1.77s.32-.94.6-1.31c.27-.37.64-.65,1.1-.84.46-.19,1.02-.28,1.66-.28,1.26,0,2.16.36,2.72,1.08s.83,1.76.83,3.12v4.68c0,.67-.06,1.26-.19,1.77-.13.51-.33.96-.6,1.34-.27.38-.64.67-1.1.87-.46.2-1.02.3-1.66.3ZM25.43,34.1c.25.39.69.58,1.34.58s1.09-.19,1.34-.58c.25-.39.37-.96.37-1.72v-5.6c0-.75-.12-1.31-.37-1.68-.25-.37-.69-.55-1.35-.55s-1.1.18-1.35.55c-.24.37-.37.93-.37,1.68v5.6c0,.76.12,1.33.37,1.72Z"/></svg>