<?xml version="1.0" encoding="UTF-8"?><svg id="Layer_1" xmlns="http://www.w3.org/2000/svg" viewBox="0 0 50 40"><defs><style>.cls-1{fill:#5ebdb2;}</style></defs><path class="cls-1" d="M25,1c-1,0-1.81.81-1.81,1.81v34.37c0,1,.81,1.81,1.81,1.81s1.81-.81,1.81-1.81V2.81c0-1-.81-1.81-1.81-1.81Z"/><path class="cls-1" d="M33.19,7.47c-1,0-1.81.46-1.81,1.02v12c0,.56.81,1.02,1.81,1.02s1.81-.46,1.81-1.02v-12c0-.56-.81-1.02-1.81-1.02Z"/><path class="cls-1" d="M41.37,14.1c-1,0-1.81.51-1.81,1.14v5.13c0,.63.81,1.14,1.81,1.14s1.81-.51,1.81-1.14v-5.13c0-.63-.81-1.14-1.81-1.14Z"/><path class="cls-1" d="M16.81,7.44c-1,0-1.81.81-1.81,1.81v21.5c0,1,.81,1.81,1.81,1.81s1.81-.81,1.81-1.81V9.25c0-1-.81-1.81-1.81-1.81Z"/><path class="cls-1" d="M8.63,14.13c-1,0-1.81.81-1.81,1.81v8.1c0,1,.81,1.81,1.81,1.81s1.81-.81,1.81-1.81v-8.1c0-1-.81-1.81-1.81-1.81Z"/><path class="cls-1" d="M38.66,23.88c-.16-.16-.36-.27-.62-.33-.25-.06-.58-.09-1-.09h-.41v3.66h.41c.37,0,.67-.02.9-.06.24-.04.44-.12.62-.24.18-.12.31-.28.39-.5s.12-.49.12-.83c0-.41-.03-.74-.09-.99-.06-.25-.17-.46-.33-.62Z"/><path class="cls-1" d="M37.46,17.67c-5.62,0-10.18,4.56-10.18,10.18s4.56,10.18,10.18,10.18,10.18-4.56,10.18-10.18-4.56-10.18-10.18-10.18ZM39.96,27.61c-.49.48-1.19.73-2.11.73h-1.22v5.28h-1.62v-11.38h2.84c1.9,0,2.84,1.08,2.84,3.25,0,.93-.24,1.63-.73,2.12Z"/></svg>