<?xml version="1.0" encoding="UTF-8"?><svg id="Layer_1" xmlns="http://www.w3.org/2000/svg" viewBox="0 0 50 40"><defs><style>.cls-1{fill:#5ebdb2;}</style></defs><path class="cls-1" d="M25,1c-1,0-1.81.81-1.81,1.81v34.37c0,1,.81,1.81,1.81,1.81s1.81-.81,1.81-1.81V2.81c0-1-.81-1.81-1.81-1.81Z"/><path class="cls-1" d="M33.19,7.47c-1,0-1.81.62-1.81,1.38v16.28c0,.76.81,1.38,1.81,1.38s1.81-.62,1.81-1.38V8.85c0-.76-.81-1.38-1.81-1.38Z"/><path class="cls-1" d="M41.37,14.1c-1,0-1.81.81-1.81,1.81v8.18c0,1,.81,1.81,1.81,1.81s1.81-.81,1.81-1.81v-8.18c0-1-.81-1.81-1.81-1.81Z"/><path class="cls-1" d="M16.81,7.44c-1,0-1.81.81-1.81,1.81v21.5c0,1,.81,1.81,1.81,1.81s1.81-.81,1.81-1.81V9.25c0-1-.81-1.81-1.81-1.81Z"/><path class="cls-1" d="M8.63,14.13c-1,0-1.81.81-1.81,1.81v8.1c0,1,.81,1.81,1.81,1.81s1.81-.81,1.81-1.81v-8.1c0-1-.81-1.81-1.81-1.81Z"/><polygon class="cls-1" points="36.69 29.55 38.31 29.55 37.5 24.68 36.69 29.55"/><path class="cls-1" d="M37.46,17.67c-5.62,0-10.18,4.56-10.18,10.18s4.56,10.18,10.18,10.18,10.18-4.56,10.18-10.18-4.56-10.18-10.18-10.18ZM39.12,33.61l-.61-2.84h-2.03l-.61,2.84h-1.62l2.44-11.38h1.62l2.44,11.38h-1.62Z"/></svg>