<?xml version="1.0" encoding="UTF-8"?><svg id="Layer_1" xmlns="http://www.w3.org/2000/svg" viewBox="0 0 50 40"><defs><style>.cls-1{fill:#fff;}</style></defs><g transform="translate(11.5 6)"><path class="cls-1" d="M24.07,14.03s0-.02,0-.03c0-.89.36-1.74,1.06-2.28l1.78-1.39c.27-.22.34-.6.17-.89l-2.79-4.83c-.17-.3-.53-.43-.85-.31l-2.03.81c-.85.34-1.8.27-2.58-.19l-.03-.02c-.76-.45-1.28-1.22-1.41-2.1l-.32-2.2C17.02.25,16.72,0,16.38,0h-5.59c-.34,0-.64.25-.68.59l-.32,2.21c-.13.88-.64,1.65-1.41,2.1l-.12.07c-.73.43-1.62.5-2.41.18l-2.12-.85c-.32-.13-.69,0-.85.31L.1,9.43c-.18.3-.11.68.17.89l1.78,1.39c.7.55,1.06,1.4,1.06,2.28,0,0,0,.02,0,.03,0,.9-.37,1.75-1.08,2.3l-1.76,1.35c-.27.22-.34.6-.17.89l2.79,4.83c.17.3.53.43.85.31l2.12-.85c.82-.33,1.73-.22,2.49.23.01,0,.02.01.03.02.74.44,1.27,1.16,1.4,2.01l.33,2.29c.05.34.34.59.68.59h5.59c.34,0,.64-.25.68-.59l.33-2.29c.12-.85.65-1.57,1.39-2.01.01,0,.02-.01.03-.02.76-.45,1.67-.56,2.49-.23l2.12.85c.32.13.69,0,.85-.31l2.79-4.83c.17-.3.1-.68-.17-.89l-1.76-1.35c-.71-.55-1.08-1.4-1.08-2.3ZM13.59,18.94c-3.05,0-5.44-2.79-4.78-5.95.39-1.84,1.87-3.32,3.71-3.71,3.16-.67,5.95,1.73,5.95,4.78,0,2.7-2.19,4.89-4.89,4.89h0Z"/></g></svg>
