<?xml version="1.0" encoding="UTF-8"?><svg id="Layer_1" xmlns="http://www.w3.org/2000/svg" viewBox="0 0 50 40"><defs><style>.cls-1{fill:#fff;}</style></defs><path class="cls-1" d="M35.38,21.42c.14-.93.14-1.87,0-2.79l2.95-2.3c.27-.22.34-.6.17-.89l-2.79-4.83c-.17-.3-.53-.43-.85-.31l-3.48,1.4c-.72-.57-1.51-1.04-2.36-1.4l-.53-3.7c-.05-.34-.34-.59-.68-.59h-5.59c-.34,0-.64.25-.68.59l-.53,3.7c-.84.36-1.64.83-2.36,1.4l-3.48-1.4c-.32-.13-.69,0-.85.31l-2.79,4.83c-.18.3-.11.68.17.89l2.95,2.3c-.14.93-.14,1.87,0,2.79l-2.95,2.26c-.27.22-.34.6-.17.89l2.79,4.83c.17.3.53.43.85.31l3.48-1.4c.72.57,1.51,1.04,2.36,1.4l.53,3.7c.05.34.34.59.68.59h5.59c.34,0,.64-.25.68-.59l.53-3.7c.84-.36,1.64-.83,2.36-1.4l3.48,1.4c.32.13.69,0,.85-.31l2.79-4.83c.17-.3.1-.68-.17-.89l-2.95-2.26ZM25,24.94c-2.7,0-4.89-2.19-4.89-4.89s2.19-4.89,4.89-4.89,4.89,2.19,4.89,4.89-2.19,4.89-4.89,4.89h0Z"/></svg>