<?xml version="1.0" encoding="UTF-8"?><svg id="Layer_1" xmlns="http://www.w3.org/2000/svg" viewBox="0 0 50 40"><defs><style>.cls-1{fill:#fff;}</style></defs><g transform="translate(13.93 6)"><path class="cls-1" d="M20.1,12.2c0-4.4-2.34-8.08-6.43-9.07-.02,0-.03-.02-.03-.04v-.79c0-1.15-.83-2.2-1.97-2.3-1.28-.1-2.34.89-2.34,2.15v.97c-4.12.97-6.46,4.65-6.46,9.08v7.16s0,.02-.01.03l-2.57,2.57c-.19.19-.3.45-.3.72h0c0,.56.45,1.01,1.01,1.01h20.95c.56,0,1.01-.45,1.01-1.01h0c0-.27-.11-.53-.3-.72l-2.57-2.57s-.01-.02-.01-.03v-7.16ZM11.49,28c.2,0,.39-.01.57-.06.93-.2,1.69-.83,2.07-1.69.15-.35.21-.72.21-1.12h-5.7s-.04.02-.04.04c.04,1.56,1.31,2.83,2.89,2.83h0Z"/></g></svg>
