<?xml version="1.0" encoding="UTF-8"?><svg id="Layer_1" xmlns="http://www.w3.org/2000/svg" viewBox="0 0 50 40"><defs><style>.cls-1{fill:#fff;}</style></defs><path class="cls-1" d="M29.54,9.98c0-2.46-2.02-4.48-4.48-4.48-2.52,0-4.54,2.02-4.54,4.48v13.74c-1.13,1.13-1.83,2.71-1.83,4.48,0,3.47,2.84,6.3,6.3,6.3s6.3-2.84,6.3-6.3c0-1.77-.69-3.34-1.83-4.48v-13.74h.06ZM25.06,32.42c-2.33,0-4.22-1.89-4.22-4.22,0-1.45.76-2.71,1.83-3.47v-14.75c0-1.32,1.07-2.4,2.4-2.4s2.4,1.07,2.4,2.4v14.75c1.13.76,1.83,2.02,1.83,3.47-.06,2.33-1.95,4.22-4.22,4.22Z"/><path class="cls-1" d="M25.66,25.93V9.66c0-.25-.25-.5-.5-.5h-.32c-.25,0-.5.25-.5.5v16.2c-1.01.32-1.77,1.2-1.77,2.27,0,1.32,1.07,2.4,2.4,2.4s2.46-1.01,2.46-2.33c0-1.13-.76-2.02-1.77-2.27Z"/><path class="cls-1" d="M37.84,9.79h-5.3c-.25,0-.5.25-.5.5v.32c0,.25.25.5.5.5h5.3c.25,0,.5-.25.5-.5v-.32c0-.25-.25-.5-.5-.5Z"/><path class="cls-1" d="M37.84,14.96h-5.3c-.25,0-.5.25-.5.5v.32c0,.25.25.5.5.5h5.3c.25,0,.5-.25.5-.5v-.32c0-.32-.25-.5-.5-.5Z"/><path class="cls-1" d="M37.84,20.06h-5.3c-.25,0-.5.25-.5.5v.32c0,.25.25.5.5.5h5.3c.25,0,.5-.25.5-.5v-.32c0-.25-.25-.5-.5-.5Z"/></svg>