<?xml version="1.0" encoding="UTF-8"?><svg id="Layer_1" xmlns="http://www.w3.org/2000/svg" viewBox="0 0 50 40"><defs><style>.cls-1{fill:#5ebdb2;}</style></defs><path class="cls-1" d="M25.77,1.23c-.18-.26-.45-.41-.77-.41s-.59.15-.77.41c-7.37,10.89-12.24,18.09-12.24,25.07s5.84,12.89,13.01,12.89,13.01-5.78,13.01-12.89-4.87-14.18-12.24-25.07ZM25,36.38c-5.63,0-10.21-4.52-10.21-10.08s3.91-11.76,9.01-19.41c.27-.4.71-.64,1.19-.64s.93.24,1.19.64c5.11,7.65,9.01,13.94,9.01,19.41s-4.58,10.08-10.21,10.08Z"/><path class="cls-1" d="M32.17,25.91c-.03-.85-.33-2.43-.9-3.12-.31-.37-.75-.33-1.03-.18-.28.15-.56.49-.42.95.04.12.1.23.16.34.02.03.03.06.05.09.05.1.11.21.14.32.68,2.23.18,4.2-1.39,5.55-.14.12-.32.24-.5.35-.68.44-1.1.78-.8,1.4l.03.05c.13.24.29.37.5.41.33.06.96-.08,2.07-1.1,1.31-1.21,2.16-3.25,2.1-5.08Z"/></svg>