<?xml version="1.0" encoding="UTF-8"?><svg id="Layer_1" xmlns="http://www.w3.org/2000/svg" viewBox="0 0 50 40"><defs><style>.cls-1{fill:#53b4a8;}</style></defs><circle class="cls-1" cx="21.57" cy="20.25" r="2.64"/><circle class="cls-1" cx="21.57" cy="10.78" r="2.64"/><circle class="cls-1" cx="21.57" cy="2.36" r="1.58"/><circle class="cls-1" cx="21.57" cy="29.73" r="2.64"/><circle class="cls-1" cx="21.57" cy="38.14" r="1.58"/><circle class="cls-1" cx="37.87" cy="10.78" r="1.58"/><circle class="cls-1" cx="5.25" cy="28.67" r="1.58"/><circle class="cls-1" cx="5.25" cy="10.78" r="1.58"/><circle class="cls-1" cx="5.25" cy="19.72" r="1.58"/><circle class="cls-1" cx="29.45" cy="14.99" r="2.64"/><circle class="cls-1" cx="29.45" cy="6.57" r="1.58"/><circle class="cls-1" cx="13.67" cy="14.99" r="2.64"/><circle class="cls-1" cx="13.67" cy="6.57" r="1.58"/><circle class="cls-1" cx="13.67" cy="25.51" r="2.64"/><circle class="cls-1" cx="13.67" cy="33.93" r="1.58"/><path class="cls-1" d="M36.55,17.97c-5.79,0-10.48,4.69-10.48,10.48s4.69,10.48,10.48,10.48,10.48-4.69,10.48-10.48-4.69-10.48-10.48-10.48ZM38.89,31.2h-.98v2.55h-2.01v-2.55h-2.94v-1.65l2.57-6.32h2.39v6.33h.98v1.63ZM35.89,29.57v-3.15l-1.14,3.15h1.14Z"/></svg>