<?xml version="1.0" encoding="UTF-8"?><svg id="Layer_1" xmlns="http://www.w3.org/2000/svg" viewBox="0 0 50 40"><defs><style>.cls-1{fill:#5ebdb2;}</style></defs><circle class="cls-1" cx="22.44" cy="20" r="2.64"/><circle class="cls-1" cx="22.44" cy="10.51" r="2.64"/><circle class="cls-1" cx="22.44" cy="2.08" r="1.58"/><circle class="cls-1" cx="22.44" cy="29.49" r="2.64"/><circle class="cls-1" cx="22.44" cy="37.92" r="1.58"/><circle class="cls-1" cx="38.77" cy="10.51" r="1.58"/><circle class="cls-1" cx="6.1" cy="28.43" r="1.58"/><circle class="cls-1" cx="6.1" cy="10.51" r="1.58"/><circle class="cls-1" cx="6.1" cy="19.47" r="1.58"/><circle class="cls-1" cx="30.34" cy="14.73" r="2.64"/><circle class="cls-1" cx="30.34" cy="6.3" r="1.58"/><circle class="cls-1" cx="14.53" cy="14.73" r="2.64"/><circle class="cls-1" cx="14.53" cy="6.3" r="1.58"/><circle class="cls-1" cx="14.53" cy="25.27" r="2.64"/><circle class="cls-1" cx="14.53" cy="33.7" r="1.58"/><polygon class="cls-1" points="33.29 29.61 33.29 26.07 32.01 29.61 33.29 29.61"/><path class="cls-1" d="M37.83,17.72c-5.8,0-10.5,4.7-10.5,10.5s4.7,10.5,10.5,10.5,10.5-4.7,10.5-10.5-4.7-10.5-10.5-10.5ZM36.65,31.44h-1.1v2.86h-2.26v-2.86h-3.3v-1.85l2.88-7.09h2.68v7.1h1.1v1.83ZM39.27,34.31h-2.13v-2.08h2.13v2.08ZM45.92,32.26c-.13.44-.32.83-.58,1.17-.26.34-.59.61-1,.81-.41.2-.88.3-1.4.3s-1-.1-1.41-.29c-.41-.2-.75-.47-1-.81-.25-.34-.44-.73-.57-1.17-.13-.44-.19-.91-.19-1.42v-4.86c0-.52.06-1.01.19-1.45.13-.44.31-.83.56-1.17s.58-.61.99-.8c.41-.19.89-.29,1.44-.29s1.02.1,1.43.29c.41.19.74.46.99.8.25.34.44.73.56,1.17.13.44.19.92.19,1.44v4.86c0,.5-.06.97-.2,1.41Z"/><path class="cls-1" d="M42.95,24.29c-.16,0-.3.04-.41.12-.11.08-.2.18-.26.29-.06.11-.1.26-.14.43-.03.17-.05.32-.06.44,0,.12,0,.26,0,.41v4.86c0,.14,0,.27.02.4.01.13.03.28.07.44.04.16.08.31.14.43.06.12.15.22.26.3.11.08.24.12.39.12.18,0,.34-.06.47-.17.13-.12.22-.27.28-.46.06-.19.09-.37.11-.54.02-.17.03-.34.03-.52v-4.86c0-1.13-.29-1.7-.89-1.7Z"/></svg>