<?xml version="1.0" encoding="UTF-8" standalone="no"?>
<!DOCTYPE svg PUBLIC "-//W3C//DTD SVG 1.1//EN" "http://www.w3.org/Graphics/SVG/1.1/DTD/svg11.dtd">
<svg width="100%" height="100%" viewBox="0 0 50 40" version="1.1" xmlns="http://www.w3.org/2000/svg" xmlns:xlink="http://www.w3.org/1999/xlink" xml:space="preserve" xmlns:serif="http://www.serif.com/" style="fill-rule:evenodd;clip-rule:evenodd;stroke-linejoin:round;stroke-miterlimit:2;">
    <g transform="matrix(1.43329,0,0,-1.43329,8.24431,37.5959)">
        <path d="M20,5.8L7.8,18.4L5.3,21L4,19.7L6.8,16.9C6.3,15.9 6,14.8 6,13.5L6,8.5L4,6.5L4,5.5L17.7,5.5L19.7,3.5L21,4.8L20,5.8ZM12,2.5C13.1,2.5 14,3.4 14,4.5L10,4.5C10,3.4 10.9,2.5 12,2.5ZM18,9.8L18,13.5C18,16.6 16.4,19.1 13.5,19.8L13.5,20.5C13.5,21.3 12.8,22 12,22C11.2,22 10.5,21.3 10.5,20.5L10.5,19.8C10.4,19.8 10.2,19.7 10.1,19.7C10,19.7 9.9,19.6 9.8,19.6C9.5,19.5 9.3,19.4 9.1,19.3L18,9.8Z" style="fill:white;fill-rule:nonzero;"/>
    </g>
</svg>
