<?xml version="1.0" encoding="UTF-8" standalone="no"?>
<!DOCTYPE svg PUBLIC "-//W3C//DTD SVG 1.1//EN" "http://www.w3.org/Graphics/SVG/1.1/DTD/svg11.dtd">
<svg width="100%" height="100%" viewBox="0 0 50 40" version="1.1" xmlns="http://www.w3.org/2000/svg" xmlns:xlink="http://www.w3.org/1999/xlink" xml:space="preserve" xmlns:serif="http://www.serif.com/" style="fill-rule:evenodd;clip-rule:evenodd;stroke-linejoin:round;stroke-miterlimit:2;">
    <g transform="matrix(1.42925,-3.37775e-32,-3.37775e-32,-1.42925,8.37005,37.6174)">
        <path d="M7.6,20.4L6.2,21.8C3.8,20 2.2,17.1 2.1,14L4.1,14C4.2,16.7 5.5,19 7.6,20.4ZM20,14L22,14C21.9,17.2 20.3,20 17.9,21.8L16.5,20.4C18.5,19 19.8,16.7 20,14ZM18,13.5C18,16.6 16.4,19.1 13.5,19.8L13.5,20.5C13.5,21.3 12.8,22 12,22C11.2,22 10.5,21.3 10.5,20.5L10.5,19.8C7.6,19.1 6,16.6 6,13.5L6,8.5L4,6.5L4,5.5L20,5.5L20,6.5L18,8.5L18,13.5ZM12,2.5L12.4,2.5C13,2.6 13.6,3.1 13.8,3.7C13.9,3.9 13.9,4.2 13.9,4.5L9.9,4.5C10,3.4 10.9,2.5 12,2.5Z" style="fill:white;fill-rule:nonzero;"/>
    </g>
</svg>
