<?xml version="1.0" encoding="UTF-8"?><svg id="Layer_1" xmlns="http://www.w3.org/2000/svg" viewBox="0 0 50 40"><defs><style>.cls-1{fill:#5ebdb2;}</style></defs><path class="cls-1" d="M38.37,5H11.63c-2.83,0-5.13,2.3-5.13,5.13v19.73c0,2.83,2.3,5.13,5.13,5.13h26.73c2.83,0,5.13-2.3,5.13-5.13V10.13c0-2.83-2.3-5.13-5.13-5.13ZM40.5,29.87c0,1.18-.96,2.13-2.13,2.13H11.63c-1.18,0-2.13-.96-2.13-2.13V10.13c0-1.18.96-2.13,2.13-2.13h26.73c1.18,0,2.13.96,2.13,2.13v19.73Z"/><path class="cls-1" d="M14.91,14.84v1.41h1.41v10.31h1.88v-13.12h-1.41c-.31.6-.93,1.07-1.88,1.41Z"/><path class="cls-1" d="M26.03,19.66c.13-.21.27-.48.42-.8.15-.32.27-.66.34-1.01s.11-.73.11-1.14c0-1.08-.28-1.92-.84-2.52-.56-.6-1.38-.9-2.44-.9-1.13,0-1.96.34-2.49,1.02s-.79,1.63-.79,2.86v.47h1.88v-.47c0-.31.02-.59.07-.85.04-.26.12-.51.22-.74.1-.23.24-.42.44-.55.19-.13.42-.2.69-.2.46,0,.8.18,1.04.55.24.36.36.81.36,1.33,0,.18-.01.36-.04.53-.02.17-.05.32-.08.45s-.08.28-.15.44c-.07.17-.13.29-.17.38-.04.09-.12.22-.22.39-.11.17-.18.29-.23.35-.04.07-.13.19-.26.37-.13.18-.22.3-.26.36l-3.29,4.69v1.88h6.57v-1.88h-4.69l3.28-4.22c.23-.33.41-.6.54-.81Z"/><path class="cls-1" d="M34.59,18.55c.33-.48.5-1.08.5-1.83,0-1.08-.28-1.92-.84-2.52-.56-.6-1.38-.9-2.44-.9s-1.87.3-2.44.9c-.56.6-.85,1.44-.85,2.51v.47h1.88c0-.29,0-.54.03-.75.02-.21.05-.42.11-.63.05-.21.13-.39.23-.52s.23-.24.41-.32.38-.12.63-.12c.53,0,.89.16,1.1.47.21.31.31.78.31,1.4,0,.69-.14,1.17-.42,1.45s-.77.42-1.45.42v1.88c.67,0,1.15.2,1.44.61s.44.98.44,1.74c0,.29,0,.54-.03.75s-.05.42-.11.63-.13.39-.23.52c-.1.13-.23.24-.41.32s-.39.12-.63.12-.45-.04-.63-.12-.31-.19-.41-.32c-.1-.13-.18-.3-.23-.52-.06-.21-.09-.43-.11-.63-.02-.21-.03-.46-.03-.75h-1.88v.47c0,1.08.28,1.92.84,2.52.56.6,1.37.9,2.44.9,1.13,0,1.96-.34,2.49-1.02s.79-1.63.79-2.86c0-.86-.16-1.57-.48-2.13-.32-.56-.79-.94-1.4-1.15.59-.18,1.04-.51,1.38-.99Z"/></svg>