<?xml version="1.0" encoding="UTF-8"?><svg id="Layer_1" xmlns="http://www.w3.org/2000/svg" viewBox="0 0 50 40"><defs><style>.cls-1{fill:#5ebdb2;}</style></defs><path class="cls-1" d="M30.75,6.74c0-3.25-2.67-5.92-5.92-5.92-3.34,0-6,2.67-6,5.92v18.18c-1.5,1.5-2.42,3.59-2.42,5.92,0,4.59,3.75,8.34,8.34,8.34s8.34-3.75,8.34-8.34c0-2.34-.92-4.42-2.42-5.92V6.74h.08ZM24.83,36.43c-3.09,0-5.59-2.5-5.59-5.59,0-1.92,1-3.59,2.42-4.59V6.74c0-1.75,1.42-3.17,3.17-3.17s3.17,1.42,3.17,3.17v19.51c1.5,1,2.42,2.67,2.42,4.59-.08,3.09-2.59,5.59-5.59,5.59Z"/><path class="cls-1" d="M25.67,27.84V6.32c0-.33-.33-.67-.67-.67h-.42c-.33,0-.67.33-.67.67v21.43c-1.33.42-2.34,1.58-2.34,3,0,1.75,1.42,3.17,3.17,3.17s3.25-1.33,3.25-3.09c0-1.5-1-2.67-2.34-3Z"/><path class="cls-1" d="M40.92,6.49h-7.01c-.33,0-.67.33-.67.67v.42c0,.33.33.67.67.67h7.01c.33,0,.67-.33.67-.67v-.42c0-.33-.33-.67-.67-.67Z"/><path class="cls-1" d="M40.92,13.33h-7.01c-.33,0-.67.33-.67.67v.42c0,.33.33.67.67.67h7.01c.33,0,.67-.33.67-.67v-.42c0-.42-.33-.67-.67-.67Z"/><path class="cls-1" d="M40.92,20.08h-7.01c-.33,0-.67.33-.67.67v.42c0,.33.33.67.67.67h7.01c.33,0,.67-.33.67-.67v-.42c0-.33-.33-.67-.67-.67Z"/></svg>